<?xml version="1.0" encoding="utf-8"?>
<!-- Generator: Adobe Illustrator 22.1.0, SVG Export Plug-In . SVG Version: 6.00 Build 0)  -->
<svg version="1.1" id="Capa_1" xmlns="http://www.w3.org/2000/svg" xmlns:xlink="http://www.w3.org/1999/xlink" x="0px" y="0px"
	 viewBox="0 0 361.4 216.2" style="enable-background:new 0 0 361.4 216.2;" xml:space="preserve">
<style type="text/css">
	.st0{fill:#606062;}
	.st1{fill:#FEFEFE;}
	.st2{font-family:'MyriadPro-Regular';}
	.st3{font-size:7.6114px;}
	.st4{fill:#848688;}
	.st5{fill:#F1A533;}
	.st6{enable-background:new    ;}
	.st7{fill:#FFFFFF;}
	.st8{fill:#E6E7E8;}
	.st9{fill:#F7931E;}
	.st10{font-size:6px;}
	.st11{font-size:16.5029px;}
</style>
<g id="_2861444424304">
	<rect x="0.7" y="23.3" class="st0" width="51.4" height="15.4"/>
	<text transform="matrix(1 0 0 1 17.4413 33.6334)" class="st1 st2 st3">Hora</text>
	<rect x="52.1" y="23.3" class="st0" width="51.4" height="15.4"/>
	<text transform="matrix(1 0 0 1 66.3334 33.6334)" class="st1 st2 st3">Lunes 13</text>
	<rect x="103.5" y="23.3" class="st0" width="51.4" height="15.4"/>
	<rect x="155" y="23.3" class="st0" width="51.4" height="15.4"/>
	<rect x="206.4" y="23.3" class="st0" width="51.4" height="15.4"/>
	<rect x="257.8" y="23.3" class="st0" width="51.4" height="15.4"/>
	<rect x="309.2" y="23.3" class="st0" width="51.4" height="15.4"/>
	<text transform="matrix(1 0 0 1 116.701 33.6334)" class="st1 st2 st3">Martes 14</text>
	<text transform="matrix(1 0 0 1 162.8407 33.6334)" class="st1 st2 st3">Miércoles 15</text>
	<text transform="matrix(1 0 0 1 218.9188 33.6334)" class="st1 st2 st3">Jueves 16</text>
	<text transform="matrix(1 0 0 1 269.5721 33.6334)" class="st1 st2 st3">Viernes 17</text>
	<text transform="matrix(1 0 0 1 320.9379 33.6334)" class="st1 st2 st3">Sábado 18</text>
	<rect x="0.7" y="54.2" class="st1" width="360" height="15.4"/>
	<rect x="0.7" y="85.1" class="st1" width="360" height="15.4"/>
	<rect x="0.7" y="116" class="st4" width="360" height="15.4"/>
	<rect x="0.7" y="131.4" class="st1" width="360" height="15.4"/>
	<rect x="0.7" y="162.3" class="st1" width="360" height="15.4"/>
	<text transform="matrix(1 0 0 1 12.1122 64.5171)" class="st5 st2 st3">8:00-9:00</text>
	<text transform="matrix(1 0 0 1 8.161 95.4004)" class="st5 st2 st3">10:00-11:00</text>
	<text transform="matrix(1 0 0 1 7.8788 126.2833)" class="st6"><tspan x="0" y="0" class="st1 st2 st3">12</tspan><tspan x="7.8" y="0" class="st7 st2 st3">:00-13:</tspan><tspan x="28.9" y="0" class="st1 st2 st3">00</tspan></text>
	<text transform="matrix(1 0 0 1 7.8788 141.7251)" class="st5 st2 st3">14:00-15:00</text>
	<text transform="matrix(1 0 0 1 7.8788 172.6084)" class="st5 st2 st3">16:00-17:00</text>
	<rect x="0.7" y="69.7" class="st8" width="360" height="15.4"/>
	<rect x="0.7" y="100.5" class="st8" width="360" height="15.4"/>
	<rect x="0.7" y="146.9" class="st8" width="360" height="15.4"/>
	<rect x="0.7" y="177.7" class="st8" width="360" height="15.4"/>
	<text transform="matrix(1 0 0 1 9.9955 79.959)" class="st5 st2 st3">9:00-10:00</text>
	<text transform="matrix(1 0 0 1 8.161 110.8423)" class="st5 st2 st3">11:00-12:00</text>
	<text transform="matrix(1 0 0 1 7.8788 157.167)" class="st5 st2 st3">15:00-16:00</text>
	<text transform="matrix(1 0 0 1 7.8788 188.0503)" class="st5 st2 st3">17:00-18:00</text>
	<g>
		<polygon class="st0" points="0.7,193.2 360.7,193.2 360.7,215.5 0.7,215.5 		"/>
		<path id="_x31_" class="st0" d="M360.7,193.9H0.7v-1.3h360l0.7,0.7L360.7,193.9L360.7,193.9z M360.7,192.5h0.7v0.7L360.7,192.5z
			 M360,215.5v-22.3h1.4v22.3l-0.7,0.7L360,215.5L360,215.5z M361.4,215.5v0.7h-0.7L361.4,215.5z M0.7,214.8h360v1.3H0.7L0,215.5
			L0.7,214.8L0.7,214.8z M0.7,216.2H0v-0.7L0.7,216.2z M1.4,193.2v22.3H0v-22.3l0.7-0.7L1.4,193.2L1.4,193.2z M0,193.2v-0.7h0.7
			L0,193.2z"/>
	</g>
	<text transform="matrix(1 0 0 1 15.0785 207.0684)" class="st1 st2 st3">Noche</text>
	<g>
		<polygon class="st1" points="52.1,54.2 103.5,54.2 103.5,116 52.1,116 		"/>
		<path id="_x31__1_" class="st4" d="M52.1,54.2h51.4V116H52.1C52.1,116,52.1,54.2,52.1,54.2z M102.9,54.9H52.8v60.4h50.1
			C102.9,115.3,102.9,54.9,102.9,54.9z"/>
	</g>
	<text transform="matrix(1 0 0 1 65.8163 83.4659)" class="st5 st2 st3">Cursos</text>
	<text transform="matrix(1 0 0 1 62.6424 91.9693)" class="st5 st2 st3">Técnicos</text>
	<g>
		<polygon class="st1" points="52.1,54.2 103.5,54.2 103.5,116 52.1,116 		"/>
		<path id="_x31__2_" class="st4" d="M103.5,54.6H52.1v-0.7h51.4l0.3,0.3L103.5,54.6L103.5,54.6z M103.5,53.9h0.3v0.3L103.5,53.9z
			 M103.2,116V54.2h0.7V116l-0.3,0.3L103.2,116z M103.9,116v0.3h-0.3L103.9,116z M52.1,115.6h51.4v0.7H52.1l-0.3-0.3L52.1,115.6
			L52.1,115.6z M52.1,116.3h-0.3V116L52.1,116.3z M52.4,54.2V116h-0.7V54.2l0.3-0.3L52.4,54.2z M51.8,54.2v-0.3h0.3L51.8,54.2z"/>
	</g>
	<text transform="matrix(1 0 0 1 65.8163 83.4659)" class="st5 st2 st3">Cursos</text>
	<text transform="matrix(1 0 0 1 62.6424 91.9693)" class="st5 st2 st3">Técnicos</text>
	<text transform="matrix(1 0 0 1 194.9559 126.4249)" class="st1 st2 st3">Lunch</text>
	<g>
		<polygon class="st1" points="52.1,162.3 103.5,162.3 103.5,193.2 52.1,193.2 		"/>
		<path id="_x31__3_" class="st4" d="M103.5,162.6H52.1V162h51.4l0.3,0.3L103.5,162.6z M103.5,162h0.3v0.3L103.5,162z M103.2,193.2
			v-30.9h0.7v30.9l-0.3,0.3L103.2,193.2z M103.9,193.2v0.3h-0.3L103.9,193.2z M52.1,192.9h51.4v0.7H52.1l-0.3-0.3L52.1,192.9
			L52.1,192.9z M52.1,193.5h-0.3v-0.3L52.1,193.5z M52.4,162.3v30.9h-0.7v-30.9l0.3-0.3L52.4,162.3z M51.8,162.3V162h0.3L51.8,162.3
			z"/>
	</g>
	<g>
		<polygon class="st8" points="52.1,162.3 103.5,162.3 103.5,131.4 52.1,131.4 		"/>
		<path id="_x31__4_" class="st4" d="M103.5,162l0.3,0.3l-0.3,0.3H52.1V162L103.5,162L103.5,162z M103.9,162.3v0.3h-0.3L103.9,162.3
			z M103.2,131.4l0.3-0.3l0.3,0.3v30.9h-0.7V131.4z M103.5,131.1h0.3v0.3L103.5,131.1z M52.1,131.8l-0.3-0.3l0.3-0.3h51.4v0.7
			L52.1,131.8L52.1,131.8z M51.8,131.4v-0.3h0.3L51.8,131.4z M52.4,162.3l-0.3,0.3l-0.3-0.3v-30.9h0.7V162.3z M52.1,162.6h-0.3v-0.3
			L52.1,162.6z"/>
	</g>
	<text transform="matrix(1 0 0 1 62.0013 149.587)" class="st5 st2 st3">Ponencia</text>
	<text transform="matrix(1 0 0 1 65.8163 176.1158)" class="st5 st2 st3">Cursos</text>
	<text transform="matrix(1 0 0 1 62.6424 184.6192)" class="st5 st2 st3">Técnicos</text>
	<rect x="0.7" y="38.8" class="st8" width="360" height="15.4"/>
	<text transform="matrix(1 0 0 1 12.1122 49.1133)" class="st5 st2 st3">7:00-8:00</text>
	<g>
		<polygon class="st8" points="52.1,54.2 103.5,54.2 103.5,38.8 52.1,38.8 		"/>
		<path id="_x31__5_" class="st4" d="M103.5,53.9l0.3,0.3l-0.3,0.3H52.1v-0.7L103.5,53.9L103.5,53.9z M103.9,54.2v0.3h-0.3
			L103.9,54.2z M103.2,38.8l0.3-0.3l0.3,0.3v15.4h-0.7V38.8z M103.5,38.4h0.3v0.3L103.5,38.4z M52.1,39.1l-0.3-0.3l0.3-0.3h51.4v0.7
			L52.1,39.1L52.1,39.1z M51.8,38.8v-0.3h0.3L51.8,38.8z M52.4,54.2l-0.3,0.3l-0.3-0.3V38.8h0.7V54.2z M52.1,54.5h-0.3v-0.3
			L52.1,54.5z"/>
	</g>
	<text transform="matrix(1 0 0 1 56.5101 49.2159)" class="st5 st2 st3">Pre-Registro</text>
	<text transform="matrix(1 0 0 1 61.6376 202.8877)" class="st1 st2 st3">Cóctel de</text>
	<text transform="matrix(1 0 0 1 55.7098 211.3907)" class="st1 st2 st3">Inauguración</text>
	<g>
		<polygon class="st1" points="103.5,54.2 155,54.2 155,69.7 103.5,69.7 		"/>
		<path id="_x31__6_" class="st4" d="M155,54.5h-51.4v-0.7H155l0.3,0.3L155,54.5L155,54.5z M155,53.9h0.3v0.3L155,53.9z M154.6,69.7
			V54.2h0.7v15.4L155,70L154.6,69.7z M155.3,69.7V70H155L155.3,69.7z M103.5,69.3H155V70h-51.4l-0.3-0.3L103.5,69.3L103.5,69.3z
			 M103.5,70h-0.3v-0.3L103.5,70z M103.9,54.2v15.4h-0.7V54.2l0.3-0.3C103.5,53.9,103.9,54.2,103.9,54.2z M103.2,54.2v-0.3h0.3
			L103.2,54.2z"/>
	</g>
	<g>
		<polygon class="st8" points="103.5,69.7 155,69.7 155,85.1 103.5,85.1 		"/>
		<path id="_x31__7_" class="st4" d="M155,70h-51.4v-0.7H155l0.3,0.3L155,70z M155,69.3h0.3v0.3L155,69.3z M154.6,85.1V69.7h0.7
			v15.4l-0.3,0.3C155,85.4,154.6,85.1,154.6,85.1z M155.3,85.1v0.3H155L155.3,85.1z M103.5,84.8H155v0.7h-51.4l-0.3-0.3
			C103.2,85.1,103.5,84.8,103.5,84.8z M103.5,85.4h-0.3v-0.3L103.5,85.4z M103.9,69.7v15.4h-0.7V69.7l0.3-0.3L103.9,69.7z
			 M103.2,69.7v-0.3h0.3L103.2,69.7z"/>
	</g>
	<text transform="matrix(1 0 0 1 114.7025 79.2046)" class="st5 st2 st3">Apertura</text>
	<text transform="matrix(1 0 0 1 107.0887 63.9043)" class="st5 st2 st3">Inscripciones</text>
	<g>
		<polygon class="st1" points="103.5,85.1 155,85.1 155,116 103.5,116 		"/>
		<path id="_x31__8_" class="st4" d="M155,85.4h-51.4v-0.7H155l0.3,0.3L155,85.4L155,85.4z M155,84.8h0.3v0.3L155,84.8z M154.6,116
			V85.1h0.7V116l-0.3,0.3L154.6,116z M155.3,116v0.3H155L155.3,116z M103.5,115.7H155v0.7h-51.4l-0.3-0.3L103.5,115.7L103.5,115.7z
			 M103.5,116.3h-0.3V116L103.5,116.3z M103.9,85.1V116h-0.7V85.1l0.3-0.3L103.9,85.1z M103.2,85.1v-0.3h0.3L103.2,85.1z"/>
	</g>
	<text transform="matrix(1 0 0 1 111.5267 103.2618)" class="st5 st2 st3">Ponencias</text>
	<g>
		<polygon class="st1" points="103.5,131.4 155,131.4 155,193.2 103.5,193.2 		"/>
		<path id="_x31__9_" class="st4" d="M155,131.8h-51.4v-0.7H155l0.3,0.3C155.3,131.4,155,131.8,155,131.8z M155,131.1h0.3v0.3
			L155,131.1z M154.6,193.2v-61.8h0.7v61.8l-0.3,0.3L154.6,193.2L154.6,193.2z M155.3,193.2v0.3H155L155.3,193.2z M103.5,192.9H155
			v0.7h-51.4l-0.3-0.3C103.2,193.2,103.5,192.9,103.5,192.9z M103.5,193.5h-0.3v-0.3L103.5,193.5z M103.9,131.4v61.8h-0.7v-61.8
			l0.3-0.3L103.9,131.4L103.9,131.4z M103.2,131.4v-0.3h0.3L103.2,131.4z"/>
	</g>
	<text transform="matrix(1 0 0 1 111.5267 165.0289)" class="st5 st2 st3">Ponencias</text>
	<g>
		<polygon class="st1" points="155,54.2 206.4,54.2 206.4,116 155,116 		"/>
		<path id="_x31__10_" class="st4" d="M206.4,54.6H155v-0.7h51.4l0.3,0.3C206.7,54.2,206.4,54.6,206.4,54.6z M206.4,53.9h0.3v0.3
			L206.4,53.9z M206.1,116V54.2h0.7V116l-0.3,0.3L206.1,116L206.1,116z M206.7,116v0.3h-0.3L206.7,116z M155,115.6h51.4v0.7H155
			l-0.3-0.3C154.6,116,155,115.6,155,115.6z M155,116.3h-0.3V116L155,116.3z M155.3,54.2V116h-0.7V54.2l0.3-0.3L155.3,54.2
			L155.3,54.2z M154.6,54.2v-0.3h0.3C155,53.9,154.6,54.2,154.6,54.2z"/>
	</g>
	<text transform="matrix(1 0 0 1 162.9559 87.8209)" class="st5 st2 st3">Ponencias</text>
	<g>
		<polygon class="st1" points="155,131.4 206.4,131.4 206.4,162.3 155,162.3 		"/>
		<path id="_x31__11_" class="st4" d="M206.4,131.8H155v-0.7h51.4l0.3,0.3L206.4,131.8L206.4,131.8z M206.4,131.1h0.3v0.3
			L206.4,131.1z M206.1,162.3v-30.9h0.7v30.9l-0.3,0.3L206.1,162.3L206.1,162.3z M206.7,162.3v0.3h-0.3L206.7,162.3z M155,162h51.4
			v0.7H155l-0.3-0.3L155,162L155,162z M155,162.6h-0.3v-0.3L155,162.6z M155.3,131.4v30.9h-0.7v-30.9l0.3-0.3L155.3,131.4
			L155.3,131.4z M154.6,131.4v-0.3h0.3C155,131.1,154.6,131.4,154.6,131.4z"/>
	</g>
	<text transform="matrix(1 0 0 1 162.9559 149.587)" class="st5 st2 st3">Ponencias</text>
	<g>
		<polygon class="st4" points="155,162.3 206.4,162.3 206.4,193.2 155,193.2 		"/>
		<path id="_x31__12_" class="st4" d="M206.4,162.6H155V162h51.4l0.3,0.3L206.4,162.6L206.4,162.6z M206.4,162h0.3v0.3L206.4,162z
			 M206.1,193.2v-30.9h0.7v30.9l-0.3,0.3L206.1,193.2L206.1,193.2z M206.7,193.2v0.3h-0.3L206.7,193.2z M155,192.9h51.4v0.7H155
			l-0.3-0.3L155,192.9L155,192.9z M155,193.5h-0.3v-0.3L155,193.5z M155.3,162.3v30.9h-0.7v-30.9l0.3-0.3L155.3,162.3L155.3,162.3z
			 M154.6,162.3V162h0.3C155,162,154.6,162.3,154.6,162.3z"/>
	</g>
	<text transform="matrix(1 0 0 1 172.9032 176.0772)" class="st1 st2 st3">Foro</text>
	<text transform="matrix(1 0 0 1 172.4813 184.5806)" class="st1 st2 st3">EOR</text>
	<text transform="matrix(1 0 0 1 214.3841 64.6578)" class="st5 st2 st3">Ponencias</text>
	<g>
		<polygon class="st1" points="206.4,54.2 257.8,54.2 257.8,85.1 206.4,85.1 		"/>
		<path id="_x31__13_" class="st4" d="M257.8,54.5h-51.4v-0.7h51.4l0.3,0.3L257.8,54.5L257.8,54.5z M257.8,53.9h0.3v0.3L257.8,53.9z
			 M257.5,85.1V54.2h0.7v30.9l-0.3,0.3L257.5,85.1L257.5,85.1z M258.1,85.1v0.3h-0.3L258.1,85.1z M206.4,84.8h51.4v0.7h-51.4
			l-0.3-0.3L206.4,84.8L206.4,84.8z M206.4,85.4h-0.3v-0.3L206.4,85.4z M206.7,54.2v30.9h-0.7V54.2l0.3-0.3L206.7,54.2L206.7,54.2z
			 M206.1,54.2v-0.3h0.3L206.1,54.2z"/>
	</g>
	<text transform="matrix(1 0 0 1 214.3841 72.379)" class="st5 st2 st3">Ponencias</text>
	<g>
		<polygon class="st0" points="206.4,85.1 257.8,85.1 257.8,116 206.4,116 		"/>
		<path id="_x31__14_" class="st4" d="M257.8,85.4h-51.4v-0.7h51.4l0.3,0.3L257.8,85.4L257.8,85.4z M257.8,84.8h0.3v0.3L257.8,84.8z
			 M257.5,116V85.1h0.7V116l-0.3,0.3L257.5,116L257.5,116z M258.1,116v0.3h-0.3L258.1,116z M206.4,115.7h51.4v0.7h-51.4l-0.3-0.3
			L206.4,115.7L206.4,115.7z M206.4,116.3h-0.3V116L206.4,116.3z M206.7,85.1V116h-0.7V85.1l0.3-0.3L206.7,85.1L206.7,85.1z
			 M206.1,85.1v-0.3h0.3L206.1,85.1z"/>
	</g>
	<text transform="matrix(1 0 0 1 215.2328 98.2564)" class="st1 st2 st3">Landmark</text>
	<text transform="matrix(1 0 0 1 215.0174 106.7593)" class="st1 st2 st3">Challenge</text>
	<g>
		<polygon class="st0" points="206.4,131.4 257.8,131.4 257.8,162.3 206.4,162.3 		"/>
		<path id="_x31__15_" class="st4" d="M257.8,131.8h-51.4v-0.7h51.4l0.3,0.3L257.8,131.8L257.8,131.8z M257.8,131.1h0.3v0.3
			L257.8,131.1z M257.5,162.3v-30.9h0.7v30.9l-0.3,0.3L257.5,162.3L257.5,162.3z M258.1,162.3v0.3h-0.3L258.1,162.3z M206.4,162
			h51.4v0.7h-51.4l-0.3-0.3L206.4,162L206.4,162z M206.4,162.6h-0.3v-0.3L206.4,162.6z M206.7,131.4v30.9h-0.7v-30.9l0.3-0.3
			L206.7,131.4L206.7,131.4z M206.1,131.4v-0.3h0.3L206.1,131.4z"/>
	</g>
	<text transform="matrix(1 0 0 1 224.3314 144.5811)" class="st1 st2 st3">Foro</text>
	<text transform="matrix(1 0 0 1 223.7015 153.0845)" class="st1 st2 st3">WIN</text>
	<g>
		<polygon class="st4" points="206.4,162.3 257.8,162.3 257.8,193.2 206.4,193.2 		"/>
		<path id="_x31__16_" class="st4" d="M257.8,162.6h-51.4V162h51.4l0.3,0.3L257.8,162.6L257.8,162.6z M257.8,162h0.3v0.3L257.8,162z
			 M257.5,193.2v-30.9h0.7v30.9l-0.3,0.3L257.5,193.2L257.5,193.2z M258.1,193.2v0.3h-0.3L258.1,193.2z M206.4,192.9h51.4v0.7h-51.4
			l-0.3-0.3L206.4,192.9L206.4,192.9z M206.4,193.5h-0.3v-0.3L206.4,193.5z M206.7,162.3v30.9h-0.7v-30.9l0.3-0.3L206.7,162.3
			L206.7,162.3z M206.1,162.3V162h0.3L206.1,162.3z"/>
	</g>
	<text transform="matrix(1 0 0 1 215.2294 175.4649)" class="st1 st2 st3">Sesión de</text>
	<text transform="matrix(1 0 0 1 217.138 183.9683)" class="st1 st2 st3">Pósteres</text>
	<g>
		<polygon class="st1" points="257.8,54.2 309.2,54.2 309.2,116 257.8,116 		"/>
		<path id="_x31__17_" class="st4" d="M309.2,54.6h-51.4v-0.7h51.4l0.3,0.3C309.6,54.2,309.2,54.6,309.2,54.6z M309.2,53.9h0.3v0.3
			L309.2,53.9z M308.9,116V54.2h0.7V116l-0.3,0.3L308.9,116L308.9,116z M309.6,116v0.3h-0.3L309.6,116z M257.8,115.6h51.4v0.7h-51.4
			l-0.3-0.3C257.5,116,257.8,115.6,257.8,115.6z M257.8,116.3h-0.3V116L257.8,116.3z M258.2,54.2V116h-0.7V54.2l0.3-0.3L258.2,54.2
			L258.2,54.2z M257.5,54.2v-0.3h0.3L257.5,54.2z"/>
	</g>
	<text transform="matrix(1 0 0 1 265.8124 87.8209)" class="st5 st2 st3">Ponencias</text>
	<g>
		<polygon class="st1" points="257.8,131.4 309.2,131.4 309.2,162.3 257.8,162.3 		"/>
		<path id="_x31__18_" class="st4" d="M309.2,131.8h-51.4v-0.7h51.4l0.3,0.3L309.2,131.8L309.2,131.8z M309.2,131.1h0.3v0.3
			L309.2,131.1z M308.9,162.3v-30.9h0.7v30.9l-0.3,0.3L308.9,162.3L308.9,162.3z M309.6,162.3v0.3h-0.3L309.6,162.3z M257.8,162
			h51.4v0.7h-51.4l-0.3-0.3L257.8,162L257.8,162z M257.8,162.6h-0.3v-0.3L257.8,162.6z M258.1,131.4v30.9h-0.7v-30.9l0.3-0.3
			L258.1,131.4L258.1,131.4z M257.5,131.4v-0.3h0.3L257.5,131.4z"/>
	</g>
	<text transform="matrix(1 0 0 1 265.8124 149.587)" class="st5 st2 st3">Ponencias</text>
	<g>
		<polygon class="st9" points="257.8,162.3 309.2,162.3 309.2,193.2 257.8,193.2 		"/>
		<path id="_x31__19_" class="st4" d="M309.2,162.6h-51.4V162h51.4l0.3,0.3L309.2,162.6L309.2,162.6z M309.2,162h0.3v0.3L309.2,162z
			 M308.9,193.2v-30.9h0.7v30.9l-0.3,0.3L308.9,193.2L308.9,193.2z M309.6,193.2v0.3h-0.3L309.6,193.2z M257.8,192.9h51.4v0.7h-51.4
			l-0.3-0.3L257.8,192.9L257.8,192.9z M257.8,193.5h-0.3v-0.3L257.8,193.5z M258.1,162.3v30.9h-0.7v-30.9l0.3-0.3L258.1,162.3
			L258.1,162.3z M257.5,162.3V162h0.3L257.5,162.3z"/>
	</g>
	<text transform="matrix(1 0 0 1 275.7601 176.0772)" class="st1 st2 st3">Foro</text>
	<text transform="matrix(1 0 0 1 275.5502 184.5806)" class="st1 st2 st3">YNC</text>
	<g>
		<polygon class="st4" points="257.8,162.3 309.2,162.3 309.2,193.2 257.8,193.2 		"/>
		<path id="_x31__20_" class="st4" d="M309.2,162.6h-51.4V162h51.4l0.3,0.3L309.2,162.6L309.2,162.6z M309.2,162h0.3v0.3L309.2,162z
			 M308.9,193.2v-30.9h0.7v30.9l-0.3,0.3L308.9,193.2L308.9,193.2z M309.6,193.2v0.3h-0.3L309.6,193.2z M257.8,192.9h51.4v0.7h-51.4
			l-0.3-0.3L257.8,192.9L257.8,192.9z M257.8,193.5h-0.3v-0.3L257.8,193.5z M258.1,162.3v30.9h-0.7v-30.9l0.3-0.3L258.1,162.3
			L258.1,162.3z M257.5,162.3V162h0.3L257.5,162.3z"/>
	</g>
	<text transform="matrix(1 0 0 1 275.7601 176.0772)" class="st1 st2 st3">Foro</text>
	<text transform="matrix(1 0 0 1 275.5502 184.5806)" class="st1 st2 st3">YNC</text>
	<g>
		<polygon class="st0" points="309.2,131.4 360.7,131.4 360.7,193.2 309.2,193.2 		"/>
		<path id="_x31__21_" class="st4" d="M360.7,132.1h-51.4v-1.3h51.4l0.7,0.7L360.7,132.1z M360.7,130.8h0.7v0.7L360.7,130.8z
			 M360,193.2v-61.8h1.3v61.8l-0.7,0.7L360,193.2L360,193.2z M361.3,193.2v0.7h-0.7L361.3,193.2z M309.2,192.5h51.4v1.3h-51.4
			l-0.7-0.7L309.2,192.5L309.2,192.5z M309.2,193.9h-0.7v-0.7L309.2,193.9z M309.9,131.4v61.8h-1.3v-61.8l0.7-0.7
			C309.2,130.8,309.9,131.4,309.9,131.4z M308.6,131.4v-0.7h0.7L308.6,131.4z"/>
	</g>
	<text transform="matrix(1 0 0 1 318.9359 160.6363)" class="st1 st2 st3">PetroCup</text>
	<text transform="matrix(1 0 0 1 212.9652 202.8877)" class="st1 st2 st3">Networking</text>
	<text transform="matrix(1 0 0 1 218.4613 211.3907)" class="st1 st2 st3">Session</text>
	<text transform="matrix(1 0 0 1 267.8134 202.8877)" class="st1 st2 st3">Fiesta de</text>
	<text transform="matrix(1 0 0 1 268.2367 211.3907)" class="st1 st2 st3">Clausura</text>
	<text transform="matrix(1 0 0 1 311.1654 202.8877)" class="st1 st2 st3">Fiesta de cierre</text>
	<text transform="matrix(1 0 0 1 311.1654 211.3904)" class="st1 st2 st10">*Evento no oficial</text>
</g>
<rect x="0" class="st1" width="361.4" height="23.3"/>
<text transform="matrix(1 0 0 1 146.9072 17.8128)" class="st0 st2 st11">AGOSTO</text>
</svg>
